<?xml version="1.0" encoding="UTF-8"?>
<svg width="3000px" height="81px" viewBox="0 0 3000 81" version="1.1" xmlns="http://www.w3.org/2000/svg" xmlns:xlink="http://www.w3.org/1999/xlink">
    <!-- Generator: Sketch 53.2 (72643) - https://sketchapp.com -->
    <title>edge-texture-70f2ad60bb6024bac855ec3509c6825f</title>
    <desc>Created with Sketch.</desc>
    <g id="Page-1" stroke="none" stroke-width="1" fill="none" fill-rule="evenodd">
        <g id="edge-texture-70f2ad60bb6024bac855ec3509c6825f" fill="#FFFFFF" fill-rule="nonzero">
            <path d="M0,0 L0,43 C19.4,43.86 38.83,44.45 58.22,44 C87.73,43.36 117.22,41.33 146.71,39.8 C165.58,38.8 184.48,38.11 203.29,36.44 C241.29,33.07 279.14,28.87 317.1,25.51 C342.1,23.28 367.25,21.73 392.35,20.21 C434.75,17.64 477.14,14.88 519.58,13.07 C557.82,11.45 596.11,10.68 634.38,10.18 C653.29,9.93 672.25,10.68 691.14,11.8 C722.56,13.67 753.94,16.12 785.33,18.47 C807.33,20.11 829.33,21.65 851.22,23.84 C891.95,27.91 932.61,32.84 973.37,36.64 C1012.18,40.26 1051.07,43.13 1089.95,45.94 C1115.87,47.82 1141.83,48.94 1167.78,50.52 C1192.78,52 1217.78,53.7 1242.78,55 C1277.39,56.8 1312.02,58.11 1346.62,60.06 C1367.78,61.26 1388.91,63.13 1410.04,64.95 C1425.73,66.3 1441.38,68.15 1457.04,69.61 C1480.52,71.8 1504.04,74.16 1527.52,75.85 C1552.16,77.61 1576.88,78.34 1601.52,80.15 C1613.97,81.07 1626.34,80.21 1637.1,74.66 C1644.48,70.85 1651,68.36 1659.37,68.66 C1670.75,69.03 1682.2,67.96 1693.6,67.26 C1709.25,66.26 1724.88,64.62 1740.54,64.11 C1759.38,63.51 1778.25,63.86 1797.11,63.68 C1800.27,63.68 1804.11,64.9 1806.6,60.17 L1799.11,57.17 C1810.34,52.86 1816.6,52.6 1827.7,55.28 C1834.96,57.03 1842.21,58.28 1849.7,56.18 C1854.59559,54.7869467 1859.6225,53.9055619 1864.7,53.55 C1880.81,52.55 1896.94,52.1 1913.05,51.24 C1922.77,50.73 1932.46,49.53 1942.18,49.36 C1945.41,49.3 1950.18,45.77 1952.26,51.85 C1952.39,52.25 1954.5,52.59 1955.09,52.15 C1964.09,45.39 1973.02,50.5 1981.54,52.94 C1988.97,55.08 1996.02,56.1 2003.54,54.43 C2006.09,53.86 2010.65,53.23 2011.21,54.28 C2014.54,60.45 2019.98,58.22 2024.64,58.28 C2032.74,58.42 2041.82,60.28 2048.7,57.28 C2058.14,53.17 2067.29,51.81 2077.22,51.33 C2096.1,50.43 2114.94,48.67 2133.81,47.51 C2139.61,47.16 2145.47,47.98 2151.27,47.63 C2175.59,46.19 2199.89,44.27 2224.22,43.01 C2235.99,42.4 2247.82,42.94 2259.62,42.73 C2262.2,42.68 2265.26,42.31 2267.23,40.89 C2273.44,36.39 2279.85,35.94 2286.97,37.96 C2294.09,39.98 2301.34,42.53 2308.67,43.09 C2324.29,44.27 2339.67,48.33 2355.67,46.43 C2364.49,45.43 2373.54,46.13 2382.48,46.27 C2399.24,46.54 2416,47.55 2432.74,47.17 C2456.36,46.62 2479.87,47.08 2503.32,50.07 C2512.25,51.21 2521.38,51.07 2530.23,52.56 C2565.17112,58.5793773 2600.5642,61.5904146 2636.02,61.56 C2639.95,61.56 2644.02,61.45 2647.79,62.26 C2661.9,65.26 2675.87,63.55 2689.92,61.9 C2694.98928,61.2509529 2700.12579,61.3385261 2705.17,62.16 C2715.27822,63.9086633 2725.6524,63.3237689 2735.5,60.45 C2739.9814,59.0407996 2744.64287,58.2863422 2749.34,58.21 C2759.55243,58.3522577 2769.75012,59.0365539 2779.89,60.26 C2790.21,61.58 2800.99,55.87 2810.98,62.43 C2812.07,63.14 2814.15,62.76 2815.64,62.37 C2831,58.37 2846.39,58.05 2862.13,60.27 C2870.13,61.4 2878.5,60.15 2886.69,60.27 C2900.40119,60.540357 2914.08843,59.0072247 2927.4,55.71 C2940.09,52.59 2953.79,53.58 2967.04,52.64 C2970.16,52.41 2973.23,51.64 2976.35,51.21 C2984.21667,50.17 2992.09333,49.17 2999.98,48.21 L2999.98,0 L0,0 Z" id="Path" transform="translate(1499.990000, 40.233882) scale(1, -1) translate(-1499.990000, -40.233882) "></path>
        </g>
    </g>
</svg>