<?xml version="1.0" encoding="utf-8"?>
<!-- Generator: Adobe Illustrator 18.1.0, SVG Export Plug-In . SVG Version: 6.00 Build 0)  -->
<svg version="1.1" xmlns="http://www.w3.org/2000/svg" xmlns:xlink="http://www.w3.org/1999/xlink" x="0px" y="0px"
	 viewBox="356.2 40.2 529.7 553.9" style="enable-background:new 356.2 40.2 529.7 553.9;" xml:space="preserve">
<g id="Layer_1">
</g>
<g id="Layer_2">
	<g>
		<g>
			<path d="M491.8,329.1c0,15.9,12.9,28.9,28.9,28.9c15.9,0,28.9-13,28.9-28.9c0-15.9-13-28.9-28.9-28.9
				C504.7,300.2,491.8,313.2,491.8,329.1z"/>
			<path d="M602.8,329.1c0,15.9,13,28.9,28.9,28.9c15.9,0,28.9-13,28.9-28.9c0-15.9-12.9-28.9-28.9-28.9
				C615.8,300.2,602.8,313.2,602.8,329.1z"/>
			<path d="M742.8,300.2c-15.9,0-28.9,12.9-28.9,28.9c0,15.9,12.9,28.9,28.9,28.9c15.9,0,28.9-13,28.9-28.9
				C771.7,313.2,758.7,300.2,742.8,300.2z"/>
			<path d="M883.8,537.6c-1.1-2-2-4.2-3-7c-0.7-2-1.6-4.4-2.5-7c-6.9-19.2-18.3-50.7-22.4-80.3l-24.1,2.3l-21.5,2.8
				c3.9,18.3,17.9,58.4,23.2,72.7l3.4,9.1l-9.5-1.8c-6.1-1.1-12.4-2.6-18.5-4c-13.5-3.1-27.4-6.3-40.3-6.3l-0.5,0
				c-32.4,0.2-56.7,8.5-78,15.8c-3.4,1.2-6.5,2.3-9.6,3.4c-16.6,5.9-29.7,10.6-53.6,10.6c-100.7,0-169.6-65.7-200.5-127.2
				c-45.6-90.7-17.7-172.9,13.8-225.9c39.2-65.9,112.4-108.6,186.7-108.6c24.7,0,87,5,141,50.5l16.7-18.3l14-16.1
				c-65.8-56.1-141.7-62.2-171.7-62.2c-45.3,0-90.6,12.6-130.9,36.3c-39.4,23.2-72.4,56-95.5,94.8c-24.6,41.4-39.1,84.2-43.1,127.1
				c-4.6,49.2,4.7,97.3,27.7,143c21.5,42.7,53.6,79.5,92.9,106.4c44.1,30.2,95.6,46.2,148.8,46.2c31.3,0,49.9-6.6,69.6-13.5
				c2.8-1,5.6-2,8.5-3c20.7-7.1,38.5-13.2,63.5-13.3c0.9,0,1.8,0,2.7,0c39.2,0,67.5,5.6,79.9,10.4c2.7,1,5.5,1.5,8.3,1.5
				c0,0,0,0,0,0c7.2,0,14.1-3.4,18.5-9.1C879.1,565.4,890.5,549.8,883.8,537.6z"/>
		</g>
	</g>
</g>
</svg>
