<?xml version="1.0" encoding="UTF-8"?>
<svg width="231px" height="172px" viewBox="0 0 231 172" version="1.1" xmlns="http://www.w3.org/2000/svg" xmlns:xlink="http://www.w3.org/1999/xlink">
    <!-- Generator: Sketch 53.2 (72643) - https://sketchapp.com -->
    <title>Group 6</title>
    <desc>Created with Sketch.</desc>
    <g id="Page-1" stroke="none" stroke-width="1" fill="none" fill-rule="evenodd">
        <g id="Artboard" transform="translate(-244.000000, -496.000000)" fill="#D0D0D0" stroke="#FFFFFF" stroke-width="1.2">
            <g id="Group-6" transform="translate(244.000000, 496.000000)">
                <path d="M80.8335063,70.0653538 L80.9309399,70.0785269 L81.0440543,70.1033954 L81.1456061,70.1353949 C82.0162276,70.4974489 82.1976745,71.4853054 81.8890199,72.9241626 C81.4199353,75.1096289 80.2160495,78.7571881 79.0837743,81.3501128 C78.436599,82.8321527 77.8407908,83.9209208 77.3181747,84.5143728 C76.4917816,85.4527763 75.5077508,85.3081451 75.1566506,84.0290539 C74.2582587,80.7561278 76.1071231,75.1558541 78.8809284,71.5414115 C79.7521777,70.4057338 80.2949377,70.0371286 80.8335063,70.0653538 Z M160.09633,70.4484571 C160.40516,70.0930954 160.745192,69.6973378 161.228709,69.131527 C161.370808,68.9652433 161.53249,68.7758707 161.843712,68.4113211 C162.098414,68.1130421 162.288132,67.8911259 162.474983,67.6730406 C162.565142,67.567837 162.565142,67.567837 162.655369,67.4626735 C165.649535,63.9739196 166.683808,62.8764995 167.360832,62.8764995 C167.606407,62.8764995 167.837963,62.9688111 168.011094,63.1418335 C168.233739,63.3643379 168.305635,63.6471357 168.279347,64.0107897 L168.226821,64.2164849 C167.235592,66.3900666 166.925824,67.0076599 163.369452,73.9988808 C163.203551,74.325102 163.203551,74.325102 163.037811,74.6514417 C161.031686,78.6030487 159.77877,81.1700997 158.797423,83.4078467 C157.027246,87.4431824 156.240288,89.2336641 155.247955,91.4783044 C147.889441,108.123124 142.69714,118.943526 137.109785,128.698805 C130.150652,140.84602 124.373942,149.52286 117.337752,157.513541 C113.419874,161.963651 110.096445,164.843716 105.928841,166.839922 C104.228436,167.653933 102.664222,168.07106 101.272662,168.07106 C97.5740518,168.07106 95.4123425,165.209872 95.1970117,160.248909 C94.9970536,155.664516 96.1555811,151.553089 98.7349712,145.955237 C102.556802,137.663647 107.757682,129.519069 115.095851,120.330855 C128.529861,103.50752 143.047214,87.420438 158.244762,72.5153146 C158.562719,72.2028529 158.955658,71.7607734 160.09633,70.4484571 Z M160.09633,70.4484571 C160.096336,70.4484507 160.096341,70.4484443 160.096347,70.4484379 L160.096314,70.4484762 C160.096319,70.4484699 160.096325,70.4484635 160.09633,70.4484571 Z M72.0477394,70.4067955 L72.4575787,70.7139819 L72.817434,70.2338734 L72.2526476,70.0313483 C72.2252992,70.1076157 72.156447,70.2341173 72.0477394,70.4067955 Z M104.389613,40.1911775 C104.389612,40.1911925 104.389611,40.1912076 104.38961,40.1912226 L104.389616,40.1911324 C104.389615,40.1911474 104.389614,40.1911625 104.389613,40.1911775 Z M144.83696,64.0272219 C144.852973,64.1329019 144.869449,64.245626 144.886648,64.3663331 C144.888106,64.3764507 144.888358,64.3789094 144.888474,64.3540954 C144.875297,64.3033461 144.875297,64.3033461 145.023404,63.9871301 C145.377813,63.7336385 145.377813,63.7336385 145.761082,63.836281 C145.926491,63.954114 145.926491,63.954114 145.968886,64.0155521 C146.012539,64.0762094 146.000869,64.0408563 146.01066,64.0704517 C145.991774,64.0099628 145.968345,63.9414217 145.942175,63.8888696 C145.924476,63.8515818 145.924476,63.8515818 145.851733,63.7545289 C145.783301,63.6753549 145.783301,63.6753549 145.545109,63.56939 C145.129655,63.5766547 145.129655,63.5766547 144.902787,63.818748 C144.874634,63.907371 144.853122,63.9750894 144.83696,64.0272219 Z M146.012568,64.0762056 C146.012917,64.0772558 146.013287,64.078364 146.013678,64.0795337 L146.012568,64.0762056 Z M150.311499,73.4663859 L150.316079,73.4608039 C150.31453,73.4626478 150.313005,73.4645071 150.311503,73.4663814 Z M43.9661963,77.1094893 C43.9663553,77.1096199 43.9665143,77.1097506 43.9666733,77.1098812 C43.9665145,77.1097502 43.9663556,77.1096194 43.9661967,77.1094888 Z M105.586477,40.2778812 C105.586476,40.2778969 105.586475,40.2779126 105.586473,40.2779283 L105.58648,40.2778341 C105.586479,40.2778498 105.586478,40.2778655 105.586477,40.2778812 Z M145.998882,64.1026077 C145.998702,64.1024859 145.99852,64.1023632 145.998336,64.1022393 C145.997361,64.0948712 145.996761,64.0903432 145.99684,64.0900127 Z M218.97605,34.9678249 C218.976045,34.9678262 218.976041,34.9678275 218.976036,34.9678288 L218.976065,34.9678211 C218.97606,34.9678223 218.976055,34.9678236 218.97605,34.9678249 Z" id="Fill-1"></path>
            </g>
        </g>
    </g>
</svg>