<?xml version="1.0" encoding="UTF-8"?>
<svg width="20px" height="20px" viewBox="0 0 20 20" version="1.1" xmlns="http://www.w3.org/2000/svg" xmlns:xlink="http://www.w3.org/1999/xlink">
    <!-- Generator: Sketch 46.2 (44496) - http://www.bohemiancoding.com/sketch -->
    <title>Page 1 Copy</title>
    <desc>Created with Sketch.</desc>
    <defs></defs>
    <g id="Page-1" stroke="none" stroke-width="1" fill="none" fill-rule="evenodd" opacity="0.5">
        <g id="Artboard" transform="translate(-555.000000, -945.000000)" fill="#FFFFFF">
            <path d="M562,954 C561.3,954 561,954.224 561,955 C561,954.776 561.3,955 562,955 L568,955 C568.701333,955 569,954.776 569,955 C569,954.224 568.701333,954 568,954 L562,954 Z M574,956 C574,957.400845 572.848,958.521521 571,959 L570,959 L570,962 L566,959 L559,959 C557.152,958.521521 556,958.026921 556,957 L556,949 C556,947.12318 557.152,946 559,946 L571,946 C572.848,946 574,947.12318 574,949 L574,956 Z M559,945 C556.68,945 555,946.67875 555,949 L555,957 C555,958.94625 556.68,960 559,960 L566,960 L571,965 L571,960 C573.32125,960 575,958.32125 575,956 L575,949 C575,946.67875 573.32125,945 571,945 L559,945 Z M561,950 C560.28125,950 560,950.224775 560,951 C560,950.776224 560.28125,951 561,951 L569,951 C569.72,951 570,950.776224 570,951 C570,950.224775 569.72,950 569,950 L561,950 Z" id="Page-1-Copy"></path>
        </g>
    </g>
</svg>