<?xml version="1.0" encoding="UTF-8"?>
<svg width="132px" height="28px" viewBox="0 0 132 28" version="1.1" xmlns="http://www.w3.org/2000/svg" xmlns:xlink="http://www.w3.org/1999/xlink">
    <!-- Generator: Sketch 46.2 (44496) - http://www.bohemiancoding.com/sketch -->
    <title>newline logo copy</title>
    <desc>Created with Sketch.</desc>
    <defs>
        <polygon id="path-1" points="7.7178 0.213073684 0.105 0.213073684 0.105 26.8096916 7.7178 26.8096916"></polygon>
        <polygon id="path-3" points="0 27.2606716 132 27.2606716 132 0.610587368 0 0.610587368"></polygon>
    </defs>
    <g id="Page-1" stroke="none" stroke-width="1" fill="none" fill-rule="evenodd">
        <g id="Artboard" transform="translate(-393.000000, -2.000000)">
            <g id="newline-logo-copy" transform="translate(393.000000, 2.000000)">
                <polygon id="Fill-1" fill="#4FD1A3" points="9.56658 16.1535495 2.05998 23.3907284 0.000179999989 21.1775705 5.21658 16.1535495 0.000179999989 11.1289179 2.05998 8.91576"></polygon>
                <polygon id="Fill-3" fill="#4FD1A3" points="7.0236 27.2606716 17.9442 27.2606716 17.9442 24.0248821 7.0236 24.0248821"></polygon>
                <path d="M26.08506,26.8640126 L26.08506,16.7140126 C26.12046,14.0240337 24.39306,12.3743916 22.10226,12.3383705 C19.70526,12.3383705 17.80206,14.2395495 17.80206,17.0369811 L17.80206,20.7734021 L13.92486,20.7734021 L13.92486,14.5979284 C13.92486,12.5538863 13.85406,11.9799916 12.12726,12.0874442 L12.12726,9.54093895 C14.59446,9.07449684 17.44926,8.93102316 17.44926,12.2309179 C18.40086,10.0427916 21.00966,9.21797053 23.22966,9.21797053 C27.84726,9.21797053 29.96226,12.4464337 29.96226,16.7140126 L29.96226,26.8640126 L26.08506,26.8640126 Z" id="Fill-5" fill="#3A474D"></path>
                <path d="M36.05832,16.1762 L45.43392,16.1762 C45.53952,13.5576526 43.42512,12.1949579 40.99272,12.1949579 C38.45532,12.1949579 36.58692,13.4502 36.05832,16.1762 M48.53532,18.9376105 L35.98752,18.9376105 C35.98752,22.0934211 38.41992,23.9585789 41.52132,23.9585789 C43.63632,24.0666421 45.68112,23.7796947 47.68992,22.8828316 L48.18312,25.7877158 C46.20912,26.6845789 43.91832,27.2578632 41.76852,27.2578632 C36.16392,27.3659263 32.04012,23.7076526 32.21652,17.8618632 C32.32212,12.0875053 36.41052,9.18201053 41.02812,9.18201053 C46.98492,9.18201053 49.66332,13.1992737 48.53532,18.9376105" id="Fill-7" fill="#3A474D"></path>
                <path d="M55.79532,27.0434463 L49.09812,10.00732 L49.09812,9.57689895 L53.22252,9.57689895 L55.37232,15.5307516 L56.95872,20.2641621 L57.02892,20.2641621 L61.08252,9.97129895 L62.98572,9.97129895 L67.03932,20.3007937 L67.14492,20.3007937 L68.76672,15.5307516 C69.43572,13.52212 70.17612,11.5855305 70.88112,9.57689895 L75.04032,9.57689895 L75.04032,10.00732 L68.30772,27.0434463 L66.58092,27.0434463 L62.03412,16.6064989 L57.52272,27.0434463 L55.79532,27.0434463 Z" id="Fill-9" fill="#3A474D"></path>
                <g id="Group-13" transform="translate(78.000000, 0.397514)">
                    <mask id="mask-2" fill="white">
                        <use xlink:href="#path-1"></use>
                    </mask>
                    <g id="Clip-12"></g>
                    <path d="M3.9114,0.212951579 L3.9114,20.2614147 C3.9114,23.1308884 4.6512,24.0271411 7.5768,23.5613095 L7.7178,26.5736463 C2.5014,27.4344884 0.105,26.0724042 0.105,20.2974358 L0.105,0.212951579 L3.9114,0.212951579 Z" id="Fill-11" fill="#3A474D" mask="url(#mask-2)"></path>
                </g>
                <mask id="mask-4" fill="white">
                    <use xlink:href="#path-3"></use>
                </mask>
                <g id="Clip-15"></g>
                <path d="M88.5726,26.8638295 L92.4144,26.8638295 L92.4144,9.75627158 L88.5726,9.75627158 L88.5726,26.8638295 Z M90.5112,1.93787158 C91.674,1.93787158 92.802,2.72667158 92.802,4.23284 C92.802,5.77502947 91.674,6.52841895 90.546,6.56382947 C89.3832,6.59985053 88.185,5.81105053 88.185,4.23284 C88.185,2.69065053 89.3478,1.93787158 90.5112,1.93787158 L90.5112,1.93787158 Z" id="Fill-14" fill="#3A474D" mask="url(#mask-4)"></path>
                <path d="M109.29666,26.8640126 L109.29666,16.7140126 C109.33206,14.0240337 107.60466,12.3743916 105.31386,12.3383705 C102.91686,12.3383705 101.01366,14.2395495 101.01366,17.0369811 L101.01366,26.8640126 L97.13646,26.8640126 L97.13646,14.5979284 C97.13646,12.5538863 97.06626,11.9799916 95.33886,12.0874442 L95.33886,9.54093895 C97.80606,9.07449684 100.66086,8.93102316 100.66086,12.2309179 C101.61306,10.0427916 104.22126,9.21797053 106.44186,9.21797053 C111.05946,9.21797053 113.17386,12.4464337 113.17386,16.7140126 L113.17386,26.8640126 L109.29666,26.8640126 Z" id="Fill-16" fill="#3A474D" mask="url(#mask-4)"></path>
                <path d="M119.27022,16.1762 L128.64582,16.1762 C128.75142,13.5576526 126.63702,12.1949579 124.20522,12.1949579 C121.66722,12.1949579 119.79882,13.4502 119.27022,16.1762 M131.74722,18.9376105 L119.19942,18.9376105 C119.19942,22.0934211 121.63182,23.9585789 124.73322,23.9585789 C126.84822,24.0666421 128.89302,23.7796947 130.90182,22.8828316 L131.39502,25.7877158 C129.42102,26.6845789 127.13022,27.2578632 124.98042,27.2578632 C119.37582,27.3659263 115.25202,23.7076526 115.42842,17.8618632 C115.53402,12.0875053 119.62242,9.18201053 124.24002,9.18201053 C130.19682,9.18201053 132.87522,13.1992737 131.74722,18.9376105" id="Fill-17" fill="#3A474D" mask="url(#mask-4)"></path>
            </g>
        </g>
    </g>
</svg>