<?xml version="1.0" encoding="UTF-8"?>
<svg width="30px" height="19px" viewBox="0 0 30 19" version="1.1" xmlns="http://www.w3.org/2000/svg" xmlns:xlink="http://www.w3.org/1999/xlink">
    <!-- Generator: Sketch 46.2 (44496) - http://www.bohemiancoding.com/sketch -->
    <title>newline logo</title>
    <desc>Created with Sketch.</desc>
    <defs></defs>
    <g id="Page-1" stroke="none" stroke-width="1" fill="none" fill-rule="evenodd">
        <g id="Artboard" transform="translate(-346.000000, -11.000000)">
            <g id="newline-logo" transform="translate(346.000000, 11.000000)">
                <polygon id="Fill-1" fill="#4FD1A3" points="9.56658 7.58978462 2.05998 14.8845538 0.000179999989 12.6537846 5.21658 7.58978462 0.000179999989 2.52516923 2.05998 0.2944"></polygon>
                <polygon id="Fill-3" fill="#4FD1A3" points="7.0236 18.7852923 17.9442 18.7852923 17.9442 15.5237538 7.0236 15.5237538"></polygon>
                <path d="M26.08506,18.3854769 L26.08506,8.15470769 C26.12046,5.44332308 24.39306,3.78055385 22.10226,3.74424615 C19.70526,3.74424615 17.80206,5.66055385 17.80206,8.48024615 L17.80206,12.2464 L13.92486,12.2464 L13.92486,6.02178462 C13.92486,3.96147692 13.85406,3.38301538 12.12726,3.49132308 L12.12726,0.924553846 C14.59446,0.4544 17.44926,0.309784615 17.44926,3.63593846 C18.40086,1.4304 21.00966,0.599015385 23.22966,0.599015385 C27.84726,0.599015385 29.96226,3.85316923 29.96226,8.15470769 L29.96226,18.3854769 L26.08506,18.3854769 Z" id="Fill-5" fill="#3A474D"></path>
            </g>
        </g>
    </g>
</svg>