<svg width="888" height="108" viewBox="0 0 888 108" xmlns="http://www.w3.org/2000/svg" xmlns:xlink="http://www.w3.org/1999/xlink"><title>cards/courses/large</title><defs><path d="M4 0h872a4 4 0 0 1 4 4v96H0V4a4 4 0 0 1 4-4z" id="b"/><filter x="-.8%" y="-5%" width="101.6%" height="114%" filterUnits="objectBoundingBox" id="a"><feOffset dy="2" in="SourceAlpha" result="shadowOffsetOuter1"/><feGaussianBlur stdDeviation="2" in="shadowOffsetOuter1" result="shadowBlurOuter1"/><feComposite in="shadowBlurOuter1" in2="SourceAlpha" operator="out" result="shadowBlurOuter1"/><feColorMatrix values="0 0 0 0 0 0 0 0 0 0 0 0 0 0 0 0 0 0 0.06 0" in="shadowBlurOuter1"/></filter><rect id="c" width="114" height="30" rx="15"/></defs><g fill="none" fill-rule="evenodd"><g transform="translate(4 2)"><use fill="#000" filter="url(#a)" xlink:href="#b"/><use fill="#FFF" xlink:href="#b"/><path stroke="#DEE6E8" d="M.5 99.5h879V4A3.5 3.5 0 0 0 876 .5H4A3.5 3.5 0 0 0 .5 4v95.5z"/></g><g transform="translate(746 37)"><mask id="d" fill="#fff"><use xlink:href="#c"/></mask><path d="M0 0h114v32H0z" transform="translate(0 -.79)" mask="url(#d)" fill="#FFF"/><rect x=".5" y=".5" width="113" height="29" rx="14.5" mask="url(#d)" stroke="#DEE6E8"/></g><text transform="translate(760 45)" font-size="11" font-family="Lato-Bold, Lato" fill="#3B494E" font-weight="bold"><tspan x="4.454" y="11">Start Activity</tspan></text><text transform="translate(836.06 46)" font-size="11" font-family="LucidaGrande-Bold, Lucida Grande" fill="#3B494E" font-weight="bold"><tspan x=".409" y="11">⇢</tspan></text><path d="M46.412 44.884l-1.675 1.675a.506.506 0 0 1-.715 0l-2.836-2.836a.505.505 0 0 1 0-.714l1.676-1.676a1.135 1.135 0 0 1 1.607 0l1.943 1.943a1.138 1.138 0 0 1 0 1.608zm-5.833-.554a.505.505 0 0 0-.715 0l-9.276 9.276a.505.505 0 0 0 0 .715l2.837 2.836a.505.505 0 0 0 .714 0l9.276-9.275a.506.506 0 0 0 0-.716l-2.836-2.836zM30.05 54.998a.38.38 0 0 0-.536 0c-.108.109-1.454 4.138-1.505 4.282a.379.379 0 0 0 .455.455c.144-.05 4.173-1.397 4.282-1.505a.378.378 0 0 0 0-.536l-2.696-2.696z" fill-rule="nonzero" fill="#43D6A0"/><g font-size="9" font-family="Lato-Bold, Lato" letter-spacing="1" fill="#43D6A0" font-weight="bold"><text transform="translate(64 30)"><tspan x="0" y="9">COURSE TYPE TEX</tspan> <tspan x="93.079" y="9">T</tspan></text></g><g font-size="16" font-family="Lato-Bold, Lato" letter-spacing=".4" fill="#3B494E" font-weight="bold"><text transform="translate(64 48)"><tspan x="1.137" y="16">The Lesson Title Goes Here</tspan></text></g></g></svg>