<svg width="888" height="58" viewBox="0 0 888 58" xmlns="http://www.w3.org/2000/svg" xmlns:xlink="http://www.w3.org/1999/xlink"><title>cards/courses/small</title><defs><path d="M0 0h880v46a4 4 0 0 1-4 4H4a4 4 0 0 1-4-4V0z" id="b"/><filter x="-.8%" width="101.6%" height="128%" filterUnits="objectBoundingBox" id="a"><feOffset dy="2" in="SourceAlpha" result="shadowOffsetOuter1"/><feGaussianBlur stdDeviation="2" in="shadowOffsetOuter1" result="shadowBlurOuter1"/><feComposite in="shadowBlurOuter1" in2="SourceAlpha" operator="out" result="shadowBlurOuter1"/><feColorMatrix values="0 0 0 0 0 0 0 0 0 0 0 0 0 0 0 0 0 0 0.06 0" in="shadowBlurOuter1"/></filter><rect id="c" width="114" height="30" rx="15"/></defs><g fill="none" fill-rule="evenodd"><g transform="translate(4 2)"><use fill="#000" filter="url(#a)" xlink:href="#b"/><use fill="#FFF" xlink:href="#b"/><path stroke="#DEE6E8" d="M.5.5V46A3.5 3.5 0 0 0 4 49.5h872a3.5 3.5 0 0 0 3.5-3.5V.5H.5z"/></g><g transform="translate(745 12)"><mask id="d" fill="#fff"><use xlink:href="#c"/></mask><path d="M0 0h114v32H0z" transform="translate(0 -.79)" mask="url(#d)" fill="#FFF"/><rect x=".5" y=".5" width="113" height="29" rx="14.5" mask="url(#d)" stroke="#DEE6E8"/></g><text transform="translate(759 20)" font-size="11" font-family="Lato-Bold, Lato" fill="#3B494E" font-weight="bold"><tspan x="2.138" y="11">Revisit Lesson</tspan></text><text transform="translate(835.06 21)" font-size="11" font-family="ArialUnicodeMS, Arial Unicode MS" fill="#3B494E"><tspan x="1.51" y="12">↺</tspan></text><path d="M45.412 20.884l-1.675 1.675a.506.506 0 0 1-.715 0l-2.836-2.836a.505.505 0 0 1 0-.714l1.676-1.676a1.135 1.135 0 0 1 1.607 0l1.943 1.943a1.138 1.138 0 0 1 0 1.608zm-5.833-.554a.505.505 0 0 0-.715 0l-9.276 9.276a.505.505 0 0 0 0 .715l2.837 2.836a.505.505 0 0 0 .714 0l9.276-9.275a.506.506 0 0 0 0-.716l-2.836-2.836zM29.05 30.998a.38.38 0 0 0-.536 0c-.108.109-1.454 4.138-1.505 4.282a.379.379 0 0 0 .455.455c.144-.05 4.173-1.397 4.282-1.505a.378.378 0 0 0 0-.536l-2.696-2.696z" fill-rule="nonzero" fill="#43D6A0"/><text font-family="Lato-Bold, Lato" font-size="12" font-weight="bold" letter-spacing=".3" fill="#3B494E" transform="translate(0 2)"><tspan x="60" y="29">Course Item Here</tspan></text><g font-size="9" font-family="Lato-Bold, Lato" letter-spacing="1" fill="#4084EF" font-weight="bold"><text transform="translate(165 22)"><tspan x="0" y="9">COURSE TYPE TEX</tspan> <tspan x="93.079" y="9">T</tspan></text></g></g></svg>