<svg width="132" height="28" viewBox="0 0 132 28" xmlns="http://www.w3.org/2000/svg" xmlns:xlink="http://www.w3.org/1999/xlink"><title>newline logo copy</title><defs><path id="a" d="M7.718.213H.105V26.81h7.613z"/><path id="c" d="M0 27.26h132V.61H0z"/></defs><g fill="none" fill-rule="evenodd"><path fill="#4FD1A3" d="M9.567 16.154L2.06 23.39 0 21.178l5.217-5.024L0 11.129l2.06-2.213zM7.024 27.26h10.92v-3.235H7.024z"/><path d="M26.085 26.864v-10.15c.035-2.69-1.692-4.34-3.983-4.376-2.397 0-4.3 1.902-4.3 4.699v3.736h-3.877v-6.175c0-2.044-.07-2.618-1.798-2.51V9.54c2.467-.467 5.322-.61 5.322 2.69.952-2.188 3.56-3.013 5.78-3.013 4.618 0 6.733 3.228 6.733 7.496v10.15h-3.877zM36.058 16.176h9.376c.106-2.618-2.009-3.981-4.441-3.981-2.538 0-4.406 1.255-4.935 3.981m12.477 2.762H35.988c0 3.155 2.432 5.02 5.533 5.02 2.115.109 4.16-.178 6.169-1.075l.493 2.905c-1.974.897-4.265 1.47-6.414 1.47-5.605.108-9.729-3.55-9.552-9.396.105-5.774 4.194-8.68 8.811-8.68 5.957 0 8.635 4.017 7.507 9.756M55.795 27.043l-6.697-17.036v-.43h4.125l2.15 5.954 1.586 4.733h.07l4.054-10.293h1.903l4.053 10.33h.106l1.622-4.77c.669-2.009 1.41-3.945 2.114-5.954h4.16v.43l-6.733 17.036H66.58l-4.547-10.437-4.511 10.437h-1.728z" fill="#3A474D"/><g transform="translate(78 .398)"><mask id="b" fill="#fff"><use xlink:href="#a"/></mask><path d="M3.911.213v20.048c0 2.87.74 3.766 3.666 3.3l.14 3.013c-5.216.86-7.612-.502-7.612-6.277V.213h3.806z" fill="#3A474D" mask="url(#b)"/></g><mask id="d" fill="#fff"><use xlink:href="#c"/></mask><path d="M88.573 26.864h3.841V9.756h-3.841v17.108zM90.51 1.938c1.163 0 2.291.789 2.291 2.295 0 1.542-1.128 2.295-2.256 2.33-1.163.037-2.361-.752-2.361-2.33 0-1.542 1.163-2.295 2.326-2.295zM109.297 26.864v-10.15c.035-2.69-1.692-4.34-3.983-4.376-2.397 0-4.3 1.902-4.3 4.699v9.827h-3.878V14.598c0-2.044-.07-2.618-1.797-2.51V9.54c2.467-.467 5.322-.61 5.322 2.69.952-2.188 3.56-3.013 5.78-3.013 4.618 0 6.733 3.228 6.733 7.496v10.15h-3.877zM119.27 16.176h9.376c.105-2.618-2.009-3.981-4.44-3.981-2.539 0-4.407 1.255-4.936 3.981m12.477 2.762H119.2c0 3.155 2.433 5.02 5.534 5.02 2.115.109 4.16-.178 6.169-1.075l.493 2.905c-1.974.897-4.265 1.47-6.415 1.47-5.604.108-9.728-3.55-9.552-9.396.106-5.774 4.194-8.68 8.812-8.68 5.957 0 8.635 4.017 7.507 9.756" fill="#3A474D" mask="url(#d)"/></g></svg>