<svg width="30" height="19" viewBox="0 0 30 19" xmlns="http://www.w3.org/2000/svg"><title>newline logo</title><g fill="none" fill-rule="evenodd"><path fill="#4FD1A3" d="M9.567 7.59L2.06 14.885 0 12.654 5.217 7.59 0 2.525 2.06.295zM7.024 18.785h10.92v-3.261H7.024z"/><path d="M26.085 18.385V8.155c.035-2.712-1.692-4.374-3.983-4.41-2.397 0-4.3 1.916-4.3 4.735v3.766h-3.877V6.022c0-2.06-.07-2.639-1.798-2.53V.924c2.467-.47 5.322-.615 5.322 2.71C18.401 1.43 21.01.6 23.23.6c4.618 0 6.733 3.254 6.733 7.556v10.23h-3.877z" fill="#3A474D"/></g></svg>