<svg width="523" height="343" viewBox="0 0 523 343" xmlns="http://www.w3.org/2000/svg" xmlns:xlink="http://www.w3.org/1999/xlink"><title>overlay</title><defs><path d="M500 25.03V4a4 4 0 0 0-4-4H4a4 4 0 0 0-4 4v323a4 4 0 0 0 4 4h492a4 4 0 0 0 4-4V48.97L511.97 37 500 25.03z" id="b"/><filter x="-1.8%" y="-2.7%" width="103.5%" height="105.4%" filterUnits="objectBoundingBox" id="a"><feOffset in="SourceAlpha" result="shadowOffsetOuter1"/><feGaussianBlur stdDeviation="3" in="shadowOffsetOuter1" result="shadowBlurOuter1"/><feComposite in="shadowBlurOuter1" in2="SourceAlpha" operator="out" result="shadowBlurOuter1"/><feColorMatrix values="0 0 0 0 0 0 0 0 0 0 0 0 0 0 0 0 0 0 0.1 0" in="shadowBlurOuter1"/></filter><rect id="c" width="18" height="18" rx="3.6"/><rect id="d" x="29.7" width="18" height="18" rx="3.6"/></defs><g transform="translate(6 6)" fill="none" fill-rule="evenodd"><use fill="#000" filter="url(#a)" xlink:href="#b"/><use fill="#FFF" xlink:href="#b"/><path stroke="#DEE6E8" d="M511.263 37L499.5 25.237V4A3.5 3.5 0 0 0 496 .5H4A3.5 3.5 0 0 0 .5 4v323a3.5 3.5 0 0 0 3.5 3.5h492a3.5 3.5 0 0 0 3.5-3.5V48.763L511.263 37z"/><rect fill="#E1E1E1" x="487" y="78" width="4" height="199" rx="2"/><rect fill="#B4B4B4" x="487" y="92" width="4" height="179" rx="2"/><text font-family="Lato-Bold, Lato" font-size="16" font-weight="bold" letter-spacing=".167" fill="#262F37"><tspan x="28" y="56">Break Through Self Doubt and Fear</tspan></text><path fill="#DEE6E8" d="M30 70h440v1H30z"/><rect fill="#333D50" opacity=".1" x="95.063" y="94" width="59.041" height="22" rx="4"/><rect fill="#333D50" opacity=".1" x="291.019" y="119" width="76.053" height="22" rx="4"/><text font-family="Lato-Regular, Lato" font-size="14"><tspan x="30.021" y="106" fill="#262F37">Using the </tspan> <tspan x="99.391" y="106" font-family="SourceCodePro-Bold, Source Code Pro" font-weight="bold" fill="#333D50">random</tspan> <tspan x="149.791" y="106" fill="#262F37"> function, array indexes, multiple parameters, and </tspan> <tspan x="30.021" y="130.5" fill="#262F37">string concatenation, write a madlibs cool </tspan> <tspan x="295.699" y="130.5" font-family="SourceCodePro-Bold, Source Code Pro" font-weight="bold" fill="#333D50">function</tspan> <tspan x="362.899" y="130.5" fill="#262F37"> that returns a </tspan> <tspan x="30.021" y="155" fill="#262F37">string of the following pattern.</tspan></text><text font-family="Lato-Regular, Lato" font-size="14" fill="#262F37"><tspan x="30.021" y="196">Nulla vitae elit libero, a pharetra augue. Sed posuere consectetur est at </tspan> <tspan x="30.021" y="220.5">lobortis. Vivamus sagittis lacus vel augue laoreet rutrum faucibus dolor </tspan> <tspan x="30.021" y="245">auctor.</tspan></text><text font-family="Lato-Medium, Lato" font-size="12" font-weight="400" letter-spacing=".125" fill="#656D78"><tspan x="28" y="30">Task 1/4</tspan></text><g><g transform="translate(422 288)"><use fill="#F0F5F8" xlink:href="#c"/><rect stroke="#BBC2C4" stroke-width=".9" x=".45" y=".45" width="17.1" height="17.1" rx="3.6"/></g><g transform="translate(422 288)"><use fill="#F0F5F8" xlink:href="#d"/><rect stroke="#BBC2C4" stroke-width=".9" x="30.15" y=".45" width="17.1" height="17.1" rx="3.6"/></g><text font-family="LucidaGrande-Bold, Lucida Grande" font-size="11" font-weight="bold" fill="#262F37" transform="translate(422 288)"><tspan x="3.5" y="12.8">⌘</tspan></text><text font-family="Lato-Bold, Lato" font-size="11" font-weight="bold" fill="#262F37" transform="translate(422 288)"><tspan x="35.1" y="12.7">P</tspan></text><text font-family="Lato-Bold, Lato" font-size="10.8" font-weight="bold" fill="#262F37" transform="translate(422 288)"><tspan x="20.7" y="12.8">+</tspan></text></g><text opacity=".5" font-family="Lato-Regular, Lato" font-size="12" fill="#262F37"><tspan x="329" y="302">Toggle Visibility</tspan></text></g></svg>