<svg width="20" height="20" viewBox="0 0 20 20" xmlns="http://www.w3.org/2000/svg"><title>Page 1 Copy</title><path d="M7 9c-.7 0-1 .224-1 1 0-.224.3 0 1 0h6c.701 0 1-.224 1 0 0-.776-.299-1-1-1H7zm12 2c0 1.4-1.152 2.522-3 3h-1v3l-4-3H4c-1.848-.478-3-.973-3-2V4c0-1.877 1.152-3 3-3h12c1.848 0 3 1.123 3 3v7zM4 0C1.68 0 0 1.679 0 4v8c0 1.946 1.68 3 4 3h7l5 5v-5c2.321 0 4-1.679 4-4V4c0-2.321-1.679-4-4-4H4zm2 5c-.719 0-1 .225-1 1 0-.224.281 0 1 0h8c.72 0 1-.224 1 0 0-.775-.28-1-1-1H6z" fill="#FFF" fill-rule="evenodd" opacity=".5"/></svg>