<svg xmlns="http://www.w3.org/2000/svg" viewBox="356.2 40.2 529.7 553.9"><path d="M491.8 329.1c0 15.9 12.9 28.9 28.9 28.9 15.9 0 28.9-13 28.9-28.9 0-15.9-13-28.9-28.9-28.9-16 0-28.9 13-28.9 28.9zM602.8 329.1c0 15.9 13 28.9 28.9 28.9 15.9 0 28.9-13 28.9-28.9 0-15.9-12.9-28.9-28.9-28.9-15.9 0-28.9 13-28.9 28.9zM742.8 300.2c-15.9 0-28.9 12.9-28.9 28.9 0 15.9 12.9 28.9 28.9 28.9 15.9 0 28.9-13 28.9-28.9 0-15.9-13-28.9-28.9-28.9z"/><path d="M883.8 537.6c-1.1-2-2-4.2-3-7-.7-2-1.6-4.4-2.5-7-6.9-19.2-18.3-50.7-22.4-80.3l-24.1 2.3-21.5 2.8c3.9 18.3 17.9 58.4 23.2 72.7l3.4 9.1-9.5-1.8c-6.1-1.1-12.4-2.6-18.5-4-13.5-3.1-27.4-6.3-40.3-6.3h-.5c-32.4.2-56.7 8.5-78 15.8-3.4 1.2-6.5 2.3-9.6 3.4-16.6 5.9-29.7 10.6-53.6 10.6-100.7 0-169.6-65.7-200.5-127.2-45.6-90.7-17.7-172.9 13.8-225.9 39.2-65.9 112.4-108.6 186.7-108.6 24.7 0 87 5 141 50.5l16.7-18.3 14-16.1c-65.8-56.1-141.7-62.2-171.7-62.2-45.3 0-90.6 12.6-130.9 36.3-39.4 23.2-72.4 56-95.5 94.8-24.6 41.4-39.1 84.2-43.1 127.1-4.6 49.2 4.7 97.3 27.7 143 21.5 42.7 53.6 79.5 92.9 106.4 44.1 30.2 95.6 46.2 148.8 46.2 31.3 0 49.9-6.6 69.6-13.5 2.8-1 5.6-2 8.5-3 20.7-7.1 38.5-13.2 63.5-13.3h2.7c39.2 0 67.5 5.6 79.9 10.4 2.7 1 5.5 1.5 8.3 1.5 7.2 0 14.1-3.4 18.5-9.1 1.3-1.5 12.7-17.1 6-29.3z"/></svg>