<?xml version="1.0" encoding="UTF-8"?>
<svg width="888px" height="58px" viewBox="0 0 888 58" version="1.1" xmlns="http://www.w3.org/2000/svg" xmlns:xlink="http://www.w3.org/1999/xlink">
    <!-- Generator: Sketch 46.2 (44496) - http://www.bohemiancoding.com/sketch -->
    <title>cards/courses/small</title>
    <desc>Created with Sketch.</desc>
    <defs>
        <path d="M0,0 L880,0 L880,46 L880,46 C880,48.209139 878.209139,50 876,50 L4,50 L4,50 C1.790861,50 -1.73547709e-16,48.209139 -4.4408921e-16,46 L0,0 Z" id="path-1"></path>
        <filter x="-0.8%" y="-10.0%" width="101.6%" height="128.0%" filterUnits="objectBoundingBox" id="filter-2">
            <feOffset dx="0" dy="2" in="SourceAlpha" result="shadowOffsetOuter1"></feOffset>
            <feGaussianBlur stdDeviation="2" in="shadowOffsetOuter1" result="shadowBlurOuter1"></feGaussianBlur>
            <feComposite in="shadowBlurOuter1" in2="SourceAlpha" operator="out" result="shadowBlurOuter1"></feComposite>
            <feColorMatrix values="0 0 0 0 0   0 0 0 0 0   0 0 0 0 0  0 0 0 0.06 0" type="matrix" in="shadowBlurOuter1"></feColorMatrix>
        </filter>
        <rect id="path-3" x="0" y="0" width="114" height="30" rx="15"></rect>
    </defs>
    <g id="Page-1" stroke="none" stroke-width="1" fill="none" fill-rule="evenodd">
        <g id="Artboard" transform="translate(-1.000000, -412.000000)">
            <g id="cards/courses/small" transform="translate(1.000000, 414.000000)">
                <g id="cards/shapes/small/rounded-bottom" transform="translate(4.000000, 0.000000)">
                    <g id="card">
                        <use fill="black" fill-opacity="1" filter="url(#filter-2)" xlink:href="#path-1"></use>
                        <use fill="#FFFFFF" fill-rule="evenodd" xlink:href="#path-1"></use>
                        <path stroke="#DEE6E8" stroke-width="1" d="M0.5,0.5 L0.5,46 C0.5,47.9329966 2.06700338,49.5 4,49.5 L876,49.5 C877.932997,49.5 879.5,47.9329966 879.5,46 L879.5,0.5 L0.5,0.5 Z"></path>
                    </g>
                </g>
                <g id="button/is-small/right-icon" transform="translate(745.000000, 10.000000)">
                    <g id="mixin/shape/rounded">
                        <mask id="mask-4" fill="white">
                            <use xlink:href="#path-3"></use>
                        </mask>
                        <g id="mask"></g>
                        <g id="mixin/fill/white" mask="url(#mask-4)" fill-rule="evenodd" fill="#FFFFFF">
                            <g transform="translate(0.000000, -0.789474)" id="box">
                                <rect x="0" y="0" width="114" height="32"></rect>
                            </g>
                        </g>
                        <g id="mixin/border/grey" mask="url(#mask-4)" stroke="#DEE6E8" stroke-width="1">
                            <rect id="Rectangle" x="0.5" y="0.5" width="113" height="29" rx="14.5"></rect>
                        </g>
                    </g>
                    <g id="text/button/is-small/dark" transform="translate(14.000000, 8.000000)" font-size="11" font-family="Lato-Bold, Lato" fill="#3B494E" font-weight="bold">
                        <text id="Button-Text">
                            <tspan x="2.13825" y="11">Revisit Lesson</tspan>
                        </text>
                    </g>
                    <g id="text/button/symbol" transform="translate(90.060000, 9.000000)" font-size="11" font-family="ArialUnicodeMS, Arial Unicode MS" fill="#3B494E" font-weight="normal">
                        <text id="⇢">
                            <tspan x="1.51016513" y="12">↺</tspan>
                        </text>
                    </g>
                </g>
                <g id="icons/projects/weekly" transform="translate(24.000000, 12.000000)" fill-rule="nonzero" fill="#43D6A0">
                    <path d="M21.4124532,6.88418979 L19.7372841,8.55935888 C19.5399267,8.75671622 19.2194184,8.75671622 19.0220611,8.55935888 L16.1864308,5.72293921 C15.9890735,5.52479244 15.9890735,5.20586298 16.1864308,5.00850564 L17.8615999,3.33333655 C18.3052592,2.88888782 19.0244294,2.88888782 19.4688781,3.33333655 L21.4124532,5.27612219 C21.8561125,5.71978149 21.8561125,6.43974106 21.4124532,6.88418979 L21.4124532,6.88418979 Z M15.5785702,6.33001038 C15.3812129,6.13265304 15.061494,6.13265304 14.8641367,6.33001038 L5.58834172,15.6058053 C5.39098438,15.8031627 5.39019495,16.1228815 5.58834172,16.3210283 L8.4247614,19.157448 C8.62211874,19.3548053 8.94183763,19.3548053 9.13919497,19.157448 L18.4149899,9.88165305 C18.6123472,9.68429571 18.6123472,9.3637874 18.4149899,9.16643006 L15.5785702,6.33001038 L15.5785702,6.33001038 Z M5.05074033,16.9983587 C4.90311704,16.8507354 4.66313052,16.8507354 4.5147178,16.9983587 C4.40656598,17.1065105 3.06058893,21.135758 3.01006545,21.2802235 C2.9469111,21.5541555 3.19084477,21.7980892 3.46477676,21.7349348 C3.60924233,21.6852008 7.63848976,20.3384343 7.74664158,20.2302825 C7.8950543,20.0818698 7.8950543,19.8426727 7.74664158,19.6942599 L5.05074033,16.9983587 L5.05074033,16.9983587 Z" id="assignment-color"></path>
                </g>
                <text id="Course-Item-Here" font-family="Lato-Bold, Lato" font-size="12" font-weight="bold" letter-spacing="0.3" fill="#3B494E">
                    <tspan x="60" y="29">Course Item Here</tspan>
                </text>
                <g id="text/course/activity" transform="translate(165.000000, 20.000000)" font-size="9" font-family="Lato-Bold, Lato" letter-spacing="1" fill="#4084EF" font-weight="bold">
                    <text id="COURSE-TYPE-TEXT">
                        <tspan x="0" y="9">COURSE TYPE TEX</tspan>
                        <tspan x="93.0795" y="9">T</tspan>
                    </text>
                </g>
            </g>
        </g>
    </g>
</svg>